<?xml version="1.0" encoding="UTF-8"?>
<svg xmlns="http://www.w3.org/2000/svg" xmlns:xlink="http://www.w3.org/1999/xlink" width="48pt" height="48pt" viewBox="0 0 48 48" version="1.1">
<g id="surface1">
<path style=" stroke:none;fill-rule:nonzero;fill:rgb(0%,0%,0%);fill-opacity:1;" d="M 47.496094 13.199219 C 45.871094 6.824219 40.484375 2.371094 34.398438 2.371094 C 30.382812 2.371094 26.753906 4.304688 23.996094 7.863281 C 21.238281 4.304688 17.613281 2.371094 13.601562 2.371094 C 7.515625 2.371094 2.128906 6.824219 0.503906 13.199219 C -0.367188 16.609375 -0.535156 22.0625 3.601562 28.660156 C 7.425781 34.757812 14.050781 40.40625 23.292969 45.449219 C 23.511719 45.566406 23.753906 45.628906 23.996094 45.628906 C 24.238281 45.628906 24.480469 45.566406 24.699219 45.449219 C 33.945312 40.40625 40.570312 34.757812 44.398438 28.660156 C 48.535156 22.0625 48.367188 16.609375 47.496094 13.199219 Z M 23.996094 42.488281 C 1.316406 29.851562 2.445312 17.449219 3.34375 13.921875 C 4.636719 8.847656 8.855469 5.304688 13.601562 5.304688 C 17.1875 5.304688 20.433594 7.402344 22.742188 11.214844 C 23.007812 11.652344 23.484375 11.917969 23.996094 11.917969 C 24.507812 11.917969 24.984375 11.652344 25.25 11.214844 C 27.558594 7.402344 30.808594 5.304688 34.398438 5.304688 C 39.144531 5.304688 43.363281 8.847656 44.65625 13.925781 C 45.554688 17.449219 46.6875 29.851562 23.996094 42.488281 Z M 23.996094 42.488281 "/>
</g>
</svg>
