<?xml version="1.0" encoding="UTF-8"?>
<svg xmlns="http://www.w3.org/2000/svg" xmlns:xlink="http://www.w3.org/1999/xlink" width="48pt" height="48pt" viewBox="0 0 48 48" version="1.1">
<g id="surface1">
<path style="fill:red; stroke:none;fill-rule:nonzero;fill-opacity:1;" d="M 34.007812 2.230469 C 31.769531 2.230469 29.628906 2.742188 27.648438 3.757812 C 26.300781 4.445312 25.0625 5.359375 24 6.445312 C 22.9375 5.359375 21.699219 4.445312 20.351562 3.757812 C 18.371094 2.742188 16.230469 2.230469 13.992188 2.230469 C 6.277344 2.230469 0 8.507812 0 16.222656 C 0 21.6875 2.886719 27.492188 8.578125 33.476562 C 13.332031 38.472656 19.148438 42.636719 23.195312 45.25 L 24 45.769531 L 24.804688 45.25 C 28.851562 42.636719 34.667969 38.472656 39.421875 33.476562 C 45.113281 27.492188 48 21.6875 48 16.222656 C 48 8.507812 41.722656 2.230469 34.007812 2.230469 Z M 34.007812 2.230469 "/>
</g>
</svg>
